<?xml version="1.0" encoding="UTF-8" standalone="no"?>
<!DOCTYPE svg PUBLIC "-//W3C//DTD SVG 1.1//EN"
 "http://www.w3.org/Graphics/SVG/1.1/DTD/svg11.dtd">
<!-- Generated by graphviz version 2.38.0 (20140413.2041)
 -->
<!-- Title: %3 Pages: 1 -->
<svg width="284pt" height="302pt"
 viewBox="0.00 0.00 283.85 302.29" xmlns="http://www.w3.org/2000/svg" xmlns:xlink="http://www.w3.org/1999/xlink">
<g id="graph0" class="graph" transform="scale(1 1) rotate(0) translate(4 298.291)">
<title>%3</title>
<polygon fill="white" stroke="none" points="-4,4 -4,-298.291 279.846,-298.291 279.846,4 -4,4"/>
<!-- bird_location -->
<g id="node1" class="node"><title>bird_location</title>
<polygon fill="lightgray" stroke="black" points="221.829,-294.291 157.829,-294.291 157.829,-276.291 221.829,-276.291 221.829,-294.291"/>
<text text-anchor="middle" x="189.829" y="-283.091" font-family="Times New Roman,serif" font-size="9.00">bird_location</text>
</g>
<!-- 96 -->
<g id="node5" class="node"><title>96</title>
<ellipse fill="white" stroke="black" cx="184.829" cy="-143.48" rx="18.2703" ry="18.2703"/>
<text text-anchor="middle" x="184.829" y="-141.28" font-family="Times New Roman,serif" font-size="9.00">96</text>
</g>
<!-- bird_location&#45;&gt;96 -->
<g id="edge4" class="edge"><title>bird_location&#45;&gt;96</title>
<path fill="none" stroke="red" stroke-width="0.355334" stroke-dasharray="1,5" d="M219.292,-276.194C237.025,-269.633 258.17,-258.428 268.829,-240.291 278.383,-224.035 277.908,-214.392 268.829,-197.865 256.73,-175.84 231.269,-161.611 211.532,-153.428"/>
<polygon fill="red" stroke="red" stroke-width="0.355334" points="212.7,-150.127 202.111,-149.79 210.178,-156.657 212.7,-150.127"/>
</g>
<!-- 202 -->
<g id="node6" class="node"><title>202</title>
<ellipse fill="white" stroke="black" cx="238.829" cy="-219.078" rx="21.4286" ry="21.4286"/>
<text text-anchor="middle" x="238.829" y="-216.878" font-family="Times New Roman,serif" font-size="9.00">202</text>
</g>
<!-- bird_location&#45;&gt;202 -->
<g id="edge17" class="edge"><title>bird_location&#45;&gt;202</title>
<path fill="none" stroke="green" stroke-width="0.348974" d="M196.035,-276.159C202.068,-268.252 211.54,-255.839 220.041,-244.7"/>
<polygon fill="green" stroke="green" stroke-width="0.348974" points="222.995,-246.598 226.279,-236.525 217.43,-242.351 222.995,-246.598"/>
</g>
<!-- 93 -->
<g id="node7" class="node"><title>93</title>
<ellipse fill="white" stroke="black" cx="74.829" cy="-143.48" rx="18.2703" ry="18.2703"/>
<text text-anchor="middle" x="74.829" y="-141.28" font-family="Times New Roman,serif" font-size="9.00">93</text>
</g>
<!-- bird_location&#45;&gt;93 -->
<g id="edge1" class="edge"><title>bird_location&#45;&gt;93</title>
<path fill="none" stroke="green" stroke-width="0.10617" d="M157.663,-280.571C113.437,-274.718 37.424,-261.76 20.829,-240.291 9.29703,-225.373 13.5632,-215.265 20.829,-197.865 27.1239,-182.79 39.9779,-169.8 51.5659,-160.41"/>
<polygon fill="green" stroke="green" stroke-width="0.10617" points="53.8398,-163.077 59.6681,-154.229 49.5944,-157.511 53.8398,-163.077"/>
</g>
<!-- 94 -->
<g id="node8" class="node"><title>94</title>
<ellipse fill="white" stroke="black" cx="129.829" cy="-143.48" rx="18.2703" ry="18.2703"/>
<text text-anchor="middle" x="129.829" y="-141.28" font-family="Times New Roman,serif" font-size="9.00">94</text>
</g>
<!-- bird_location&#45;&gt;94 -->
<g id="edge2" class="edge"><title>bird_location&#45;&gt;94</title>
<path fill="none" stroke="red" stroke-width="0.150512" d="M189.194,-275.801C187.74,-259.851 183.277,-224.606 170.829,-197.865 165.336,-186.065 156.863,-174.428 149.041,-165.046"/>
<polygon fill="red" stroke="red" stroke-width="0.150512" points="151.628,-162.687 142.427,-157.433 146.344,-167.278 151.628,-162.687"/>
</g>
<!-- 95 -->
<g id="node9" class="node"><title>95</title>
<ellipse fill="white" stroke="black" cx="19.829" cy="-143.48" rx="18.2703" ry="18.2703"/>
<text text-anchor="middle" x="19.829" y="-141.28" font-family="Times New Roman,serif" font-size="9.00">95</text>
</g>
<!-- bird_location&#45;&gt;95 -->
<g id="edge3" class="edge"><title>bird_location&#45;&gt;95</title>
<path fill="none" stroke="red" stroke-width="0.305235" d="M157.549,-281.116C110.8,-275.774 27.8557,-263.255 9.82897,-240.291 -5.77212,-220.417 0.522823,-190.633 8.30383,-169.556"/>
<polygon fill="red" stroke="red" stroke-width="0.305235" points="11.5536,-170.856 12.0314,-160.272 5.05759,-168.248 11.5536,-170.856"/>
</g>
<!-- top_pipe -->
<g id="node2" class="node"><title>top_pipe</title>
<polygon fill="lightgray" stroke="black" points="79.829,-228.078 29.829,-228.078 29.829,-210.078 79.829,-210.078 79.829,-228.078"/>
<text text-anchor="middle" x="54.829" y="-216.878" font-family="Times New Roman,serif" font-size="9.00">top_pipe</text>
</g>
<!-- top_pipe&#45;&gt;96 -->
<g id="edge8" class="edge"><title>top_pipe&#45;&gt;96</title>
<path fill="none" stroke="green" stroke-width="0.335222" d="M67.9807,-210.054C74.251,-206.281 81.8832,-201.765 88.829,-197.865 118.646,-181.122 127.174,-178.894 156.829,-161.865 158.131,-161.117 159.461,-160.34 160.799,-159.547"/>
<polygon fill="green" stroke="green" stroke-width="0.335222" points="162.81,-162.42 169.539,-154.237 159.175,-156.438 162.81,-162.42"/>
</g>
<!-- top_pipe&#45;&gt;93 -->
<g id="edge5" class="edge"><title>top_pipe&#45;&gt;93</title>
<path fill="none" stroke="red" stroke-width="0.323904" d="M57.0457,-209.921C59.5744,-200.616 63.8405,-184.917 67.5605,-171.227"/>
<polygon fill="red" stroke="red" stroke-width="0.323904" points="71.016,-171.858 70.2609,-161.29 64.261,-170.022 71.016,-171.858"/>
</g>
<!-- top_pipe&#45;&gt;94 -->
<g id="edge6" class="edge"><title>top_pipe&#45;&gt;94</title>
<path fill="none" stroke="green" stroke-width="0.471334" d="M63.1418,-209.921C74.2492,-199.021 94.2973,-179.348 109.521,-164.409"/>
<polygon fill="green" stroke="green" stroke-width="0.471334" points="112.283,-166.602 116.969,-157.099 107.38,-161.605 112.283,-166.602"/>
</g>
<!-- top_pipe&#45;&gt;95 -->
<g id="edge7" class="edge"><title>top_pipe&#45;&gt;95</title>
<path fill="none" stroke="green" stroke-width="0.23455" d="M50.9496,-209.921C46.351,-200.251 38.4685,-183.675 31.7875,-169.627"/>
<polygon fill="green" stroke="green" stroke-width="0.23455" points="34.8648,-167.948 27.4093,-160.42 28.5432,-170.954 34.8648,-167.948"/>
</g>
<!-- buttom_pipe -->
<g id="node3" class="node"><title>buttom_pipe</title>
<polygon fill="lightgray" stroke="black" points="161.829,-228.078 97.829,-228.078 97.829,-210.078 161.829,-210.078 161.829,-228.078"/>
<text text-anchor="middle" x="129.829" y="-216.878" font-family="Times New Roman,serif" font-size="9.00">buttom_pipe</text>
</g>
<!-- buttom_pipe&#45;&gt;96 -->
<g id="edge12" class="edge"><title>buttom_pipe&#45;&gt;96</title>
<path fill="none" stroke="green" stroke-width="0.527117" d="M135.925,-209.921C143.64,-199.596 157.238,-181.4 168.14,-166.812"/>
<polygon fill="green" stroke="green" stroke-width="0.527117" points="171,-168.832 174.183,-158.727 165.393,-164.642 171,-168.832"/>
</g>
<!-- buttom_pipe&#45;&gt;93 -->
<g id="edge9" class="edge"><title>buttom_pipe&#45;&gt;93</title>
<path fill="none" stroke="red" stroke-width="0.146244" d="M123.733,-209.921C116.017,-199.596 102.42,-181.4 91.5177,-166.812"/>
<polygon fill="red" stroke="red" stroke-width="0.146244" points="94.2651,-164.642 85.4753,-158.727 88.6579,-168.832 94.2651,-164.642"/>
</g>
<!-- buttom_pipe&#45;&gt;94 -->
<g id="edge10" class="edge"><title>buttom_pipe&#45;&gt;94</title>
<path fill="none" stroke="red" stroke-width="0.257137" d="M129.829,-209.921C129.829,-200.825 129.829,-185.62 129.829,-172.154"/>
<polygon fill="red" stroke="red" stroke-width="0.257137" points="133.329,-171.878 129.829,-161.878 126.329,-171.878 133.329,-171.878"/>
</g>
<!-- buttom_pipe&#45;&gt;95 -->
<g id="edge11" class="edge"><title>buttom_pipe&#45;&gt;95</title>
<path fill="none" stroke="red" stroke-width="0.122376" d="M117.637,-209.921C99.7605,-197.96 66.0946,-175.435 43.3146,-160.194"/>
<polygon fill="red" stroke="red" stroke-width="0.122376" points="45.1384,-157.203 34.8808,-154.551 41.2458,-163.021 45.1384,-157.203"/>
</g>
<!-- Jump or Not -->
<g id="node4" class="node"><title>Jump or Not</title>
<ellipse fill="lightblue" stroke="black" cx="101.829" cy="-44.5477" rx="44.5955" ry="44.5955"/>
<text text-anchor="middle" x="101.829" y="-42.3477" font-family="Times New Roman,serif" font-size="9.00">Jump or Not</text>
</g>
<!-- 96&#45;&gt;Jump or Not -->
<g id="edge16" class="edge"><title>96&#45;&gt;Jump or Not</title>
<path fill="none" stroke="green" stroke-width="0.334121" d="M173.288,-129.002C163.881,-118.016 150.077,-101.894 137.103,-86.7429"/>
<polygon fill="green" stroke="green" stroke-width="0.334121" points="139.585,-84.2598 130.422,-78.9403 134.267,-88.8126 139.585,-84.2598"/>
</g>
<!-- 202&#45;&gt;96 -->
<g id="edge18" class="edge"><title>202&#45;&gt;96</title>
<path fill="none" stroke="red" stroke-width="0.513519" d="M226.576,-201.378C219.209,-191.338 209.731,-178.42 201.668,-167.43"/>
<polygon fill="red" stroke="red" stroke-width="0.513519" points="204.31,-165.115 195.572,-159.123 198.666,-169.256 204.31,-165.115"/>
</g>
<!-- 93&#45;&gt;Jump or Not -->
<g id="edge13" class="edge"><title>93&#45;&gt;Jump or Not</title>
<path fill="none" stroke="green" stroke-width="0.154647" d="M79.532,-125.596C81.7532,-117.621 84.5372,-107.627 87.3777,-97.4293"/>
<polygon fill="green" stroke="green" stroke-width="0.154647" points="90.79,-98.2221 90.1017,-87.6496 84.0467,-96.3437 90.79,-98.2221"/>
</g>
<!-- 94&#45;&gt;Jump or Not -->
<g id="edge14" class="edge"><title>94&#45;&gt;Jump or Not</title>
<path fill="none" stroke="green" stroke-width="0.141933" d="M124.952,-125.596C122.648,-117.621 119.761,-107.627 116.816,-97.4293"/>
<polygon fill="green" stroke="green" stroke-width="0.141933" points="120.128,-96.2855 113.991,-87.6496 113.403,-98.2282 120.128,-96.2855"/>
</g>
<!-- 95&#45;&gt;Jump or Not -->
<g id="edge15" class="edge"><title>95&#45;&gt;Jump or Not</title>
<path fill="none" stroke="green" stroke-width="0.323926" d="M31.2307,-129.002C40.4494,-118.105 53.9428,-102.154 66.6697,-87.1096"/>
<polygon fill="green" stroke="green" stroke-width="0.323926" points="69.4421,-89.2516 73.2285,-79.3564 64.0978,-84.7306 69.4421,-89.2516"/>
</g>
</g>
</svg>
