<?xml version="1.0" encoding="utf-8" standalone="no"?>
<!DOCTYPE svg PUBLIC "-//W3C//DTD SVG 1.1//EN"
  "http://www.w3.org/Graphics/SVG/1.1/DTD/svg11.dtd">
<!-- Created with matplotlib (https://matplotlib.org/) -->
<svg height="345.6pt" version="1.1" viewBox="0 0 460.8 345.6" width="460.8pt" xmlns="http://www.w3.org/2000/svg" xmlns:xlink="http://www.w3.org/1999/xlink">
 <metadata>
  <rdf:RDF xmlns:cc="http://creativecommons.org/ns#" xmlns:dc="http://purl.org/dc/elements/1.1/" xmlns:rdf="http://www.w3.org/1999/02/22-rdf-syntax-ns#">
   <cc:Work>
    <dc:type rdf:resource="http://purl.org/dc/dcmitype/StillImage"/>
    <dc:date>2022-05-24T18:56:15.819955</dc:date>
    <dc:format>image/svg+xml</dc:format>
    <dc:creator>
     <cc:Agent>
      <dc:title>Matplotlib v3.3.4, https://matplotlib.org/</dc:title>
     </cc:Agent>
    </dc:creator>
   </cc:Work>
  </rdf:RDF>
 </metadata>
 <defs>
  <style type="text/css">*{stroke-linecap:butt;stroke-linejoin:round;}</style>
 </defs>
 <g id="figure_1">
  <g id="patch_1">
   <path d="M 0 345.6 
L 460.8 345.6 
L 460.8 0 
L 0 0 
z
" style="fill:#ffffff;"/>
  </g>
  <g id="axes_1">
   <g id="patch_2">
    <path d="M 57.6 307.584 
L 414.72 307.584 
L 414.72 41.472 
L 57.6 41.472 
z
" style="fill:#ffffff;"/>
   </g>
   <g id="PolyCollection_1">
    <path clip-path="url(#pedd356f8a1)" d="M 73.832727 305.074693 
L 73.832727 307.584 
L 109.905455 307.584 
L 145.978182 307.584 
L 182.050909 307.584 
L 218.123636 307.584 
L 254.196364 307.584 
L 290.269091 307.584 
L 326.341818 307.584 
L 362.414545 307.584 
L 398.487273 307.584 
L 398.487273 302.565386 
L 398.487273 302.565386 
L 362.414545 302.565386 
L 326.341818 302.565386 
L 290.269091 302.565386 
L 254.196364 302.565386 
L 218.123636 302.565386 
L 182.050909 302.565386 
L 145.978182 302.565386 
L 109.905455 302.565386 
L 73.832727 305.074693 
z
" style="fill:#1f77b4;"/>
   </g>
   <g id="PolyCollection_2">
    <path clip-path="url(#pedd356f8a1)" d="M 73.832727 302.565386 
L 73.832727 305.074693 
L 109.905455 302.565386 
L 145.978182 302.565386 
L 182.050909 302.565386 
L 218.123636 302.565386 
L 254.196364 302.565386 
L 290.269091 302.565386 
L 326.341818 302.565386 
L 362.414545 302.565386 
L 398.487273 302.565386 
L 398.487273 297.546772 
L 398.487273 297.546772 
L 362.414545 297.546772 
L 326.341818 297.546772 
L 290.269091 297.546772 
L 254.196364 297.546772 
L 218.123636 297.546772 
L 182.050909 297.546772 
L 145.978182 297.546772 
L 109.905455 297.546772 
L 73.832727 302.565386 
z
" style="fill:#ff7f0e;"/>
   </g>
   <g id="PolyCollection_3">
    <path clip-path="url(#pedd356f8a1)" d="M 73.832727 300.056079 
L 73.832727 302.565386 
L 109.905455 297.546772 
L 145.978182 297.546772 
L 182.050909 297.546772 
L 218.123636 297.546772 
L 254.196364 297.546772 
L 290.269091 297.546772 
L 326.341818 297.546772 
L 362.414545 297.546772 
L 398.487273 297.546772 
L 398.487273 292.528158 
L 398.487273 292.528158 
L 362.414545 292.528158 
L 326.341818 292.528158 
L 290.269091 292.528158 
L 254.196364 292.528158 
L 218.123636 292.528158 
L 182.050909 292.528158 
L 145.978182 292.528158 
L 109.905455 292.528158 
L 73.832727 300.056079 
z
" style="fill:#2ca02c;"/>
   </g>
   <g id="PolyCollection_4">
    <path clip-path="url(#pedd356f8a1)" d="M 73.832727 297.546772 
L 73.832727 300.056079 
L 109.905455 292.528158 
L 145.978182 292.528158 
L 182.050909 292.528158 
L 218.123636 292.528158 
L 254.196364 292.528158 
L 290.269091 292.528158 
L 326.341818 292.528158 
L 362.414545 292.528158 
L 398.487273 292.528158 
L 398.487273 287.509545 
L 398.487273 287.509545 
L 362.414545 287.509545 
L 326.341818 287.509545 
L 290.269091 287.509545 
L 254.196364 287.509545 
L 218.123636 287.509545 
L 182.050909 287.509545 
L 145.978182 287.509545 
L 109.905455 287.509545 
L 73.832727 297.546772 
z
" style="fill:#d62728;"/>
   </g>
   <g id="PolyCollection_5">
    <path clip-path="url(#pedd356f8a1)" d="M 73.832727 295.037465 
L 73.832727 297.546772 
L 109.905455 287.509545 
L 145.978182 287.509545 
L 182.050909 287.509545 
L 218.123636 287.509545 
L 254.196364 287.509545 
L 290.269091 287.509545 
L 326.341818 287.509545 
L 362.414545 287.509545 
L 398.487273 287.509545 
L 398.487273 282.490931 
L 398.487273 282.490931 
L 362.414545 282.490931 
L 326.341818 282.490931 
L 290.269091 282.490931 
L 254.196364 282.490931 
L 218.123636 282.490931 
L 182.050909 282.490931 
L 145.978182 282.490931 
L 109.905455 282.490931 
L 73.832727 295.037465 
z
" style="fill:#9467bd;"/>
   </g>
   <g id="PolyCollection_6">
    <path clip-path="url(#pedd356f8a1)" d="M 73.832727 292.528158 
L 73.832727 295.037465 
L 109.905455 282.490931 
L 145.978182 282.490931 
L 182.050909 282.490931 
L 218.123636 282.490931 
L 254.196364 282.490931 
L 290.269091 282.490931 
L 326.341818 282.490931 
L 362.414545 282.490931 
L 398.487273 282.490931 
L 398.487273 277.472317 
L 398.487273 277.472317 
L 362.414545 277.472317 
L 326.341818 277.472317 
L 290.269091 277.472317 
L 254.196364 277.472317 
L 218.123636 277.472317 
L 182.050909 277.472317 
L 145.978182 277.472317 
L 109.905455 277.472317 
L 73.832727 292.528158 
z
" style="fill:#8c564b;"/>
   </g>
   <g id="PolyCollection_7">
    <path clip-path="url(#pedd356f8a1)" d="M 73.832727 290.018851 
L 73.832727 292.528158 
L 109.905455 277.472317 
L 145.978182 277.472317 
L 182.050909 277.472317 
L 218.123636 277.472317 
L 254.196364 277.472317 
L 290.269091 277.472317 
L 326.341818 277.472317 
L 362.414545 277.472317 
L 398.487273 277.472317 
L 398.487273 272.453703 
L 398.487273 272.453703 
L 362.414545 272.453703 
L 326.341818 272.453703 
L 290.269091 272.453703 
L 254.196364 272.453703 
L 218.123636 272.453703 
L 182.050909 272.453703 
L 145.978182 272.453703 
L 109.905455 272.453703 
L 73.832727 290.018851 
z
" style="fill:#e377c2;"/>
   </g>
   <g id="PolyCollection_8">
    <path clip-path="url(#pedd356f8a1)" d="M 73.832727 287.509545 
L 73.832727 290.018851 
L 109.905455 272.453703 
L 145.978182 272.453703 
L 182.050909 272.453703 
L 218.123636 272.453703 
L 254.196364 272.453703 
L 290.269091 272.453703 
L 326.341818 272.453703 
L 362.414545 272.453703 
L 398.487273 272.453703 
L 398.487273 267.435089 
L 398.487273 267.435089 
L 362.414545 267.435089 
L 326.341818 267.435089 
L 290.269091 267.435089 
L 254.196364 267.435089 
L 218.123636 267.435089 
L 182.050909 267.435089 
L 145.978182 267.435089 
L 109.905455 267.435089 
L 73.832727 287.509545 
z
" style="fill:#7f7f7f;"/>
   </g>
   <g id="PolyCollection_9">
    <path clip-path="url(#pedd356f8a1)" d="M 73.832727 285.000238 
L 73.832727 287.509545 
L 109.905455 267.435089 
L 145.978182 267.435089 
L 182.050909 267.435089 
L 218.123636 267.435089 
L 254.196364 267.435089 
L 290.269091 267.435089 
L 326.341818 267.435089 
L 362.414545 267.435089 
L 398.487273 267.435089 
L 398.487273 262.416475 
L 398.487273 262.416475 
L 362.414545 262.416475 
L 326.341818 262.416475 
L 290.269091 262.416475 
L 254.196364 262.416475 
L 218.123636 262.416475 
L 182.050909 262.416475 
L 145.978182 262.416475 
L 109.905455 262.416475 
L 73.832727 285.000238 
z
" style="fill:#bcbd22;"/>
   </g>
   <g id="PolyCollection_10">
    <path clip-path="url(#pedd356f8a1)" d="M 73.832727 282.490931 
L 73.832727 285.000238 
L 109.905455 262.416475 
L 145.978182 262.416475 
L 182.050909 262.416475 
L 218.123636 262.416475 
L 254.196364 262.416475 
L 290.269091 262.416475 
L 326.341818 262.416475 
L 362.414545 262.416475 
L 398.487273 262.416475 
L 398.487273 257.397861 
L 398.487273 257.397861 
L 362.414545 257.397861 
L 326.341818 257.397861 
L 290.269091 257.397861 
L 254.196364 257.397861 
L 218.123636 257.397861 
L 182.050909 257.397861 
L 145.978182 257.397861 
L 109.905455 257.397861 
L 73.832727 282.490931 
z
" style="fill:#17becf;"/>
   </g>
   <g id="PolyCollection_11">
    <path clip-path="url(#pedd356f8a1)" d="M 73.832727 279.981624 
L 73.832727 282.490931 
L 109.905455 257.397861 
L 145.978182 257.397861 
L 182.050909 257.397861 
L 218.123636 257.397861 
L 254.196364 257.397861 
L 290.269091 257.397861 
L 326.341818 257.397861 
L 362.414545 257.397861 
L 398.487273 257.397861 
L 398.487273 252.379248 
L 398.487273 252.379248 
L 362.414545 252.379248 
L 326.341818 252.379248 
L 290.269091 252.379248 
L 254.196364 252.379248 
L 218.123636 252.379248 
L 182.050909 252.379248 
L 145.978182 252.379248 
L 109.905455 252.379248 
L 73.832727 279.981624 
z
" style="fill:#1f77b4;"/>
   </g>
   <g id="PolyCollection_12">
    <path clip-path="url(#pedd356f8a1)" d="M 73.832727 277.472317 
L 73.832727 279.981624 
L 109.905455 252.379248 
L 145.978182 252.379248 
L 182.050909 252.379248 
L 218.123636 252.379248 
L 254.196364 252.379248 
L 290.269091 252.379248 
L 326.341818 252.379248 
L 362.414545 252.379248 
L 398.487273 252.379248 
L 398.487273 247.360634 
L 398.487273 247.360634 
L 362.414545 247.360634 
L 326.341818 247.360634 
L 290.269091 247.360634 
L 254.196364 247.360634 
L 218.123636 247.360634 
L 182.050909 247.360634 
L 145.978182 247.360634 
L 109.905455 247.360634 
L 73.832727 277.472317 
z
" style="fill:#ff7f0e;"/>
   </g>
   <g id="PolyCollection_13">
    <path clip-path="url(#pedd356f8a1)" d="M 73.832727 274.96301 
L 73.832727 277.472317 
L 109.905455 247.360634 
L 145.978182 247.360634 
L 182.050909 247.360634 
L 218.123636 247.360634 
L 254.196364 247.360634 
L 290.269091 247.360634 
L 326.341818 247.360634 
L 362.414545 247.360634 
L 398.487273 247.360634 
L 398.487273 242.34202 
L 398.487273 242.34202 
L 362.414545 242.34202 
L 326.341818 242.34202 
L 290.269091 242.34202 
L 254.196364 242.34202 
L 218.123636 242.34202 
L 182.050909 242.34202 
L 145.978182 242.34202 
L 109.905455 242.34202 
L 73.832727 274.96301 
z
" style="fill:#2ca02c;"/>
   </g>
   <g id="PolyCollection_14">
    <path clip-path="url(#pedd356f8a1)" d="M 73.832727 272.453703 
L 73.832727 274.96301 
L 109.905455 242.34202 
L 145.978182 242.34202 
L 182.050909 242.34202 
L 218.123636 242.34202 
L 254.196364 242.34202 
L 290.269091 242.34202 
L 326.341818 242.34202 
L 362.414545 242.34202 
L 398.487273 242.34202 
L 398.487273 237.323406 
L 398.487273 237.323406 
L 362.414545 237.323406 
L 326.341818 237.323406 
L 290.269091 237.323406 
L 254.196364 237.323406 
L 218.123636 237.323406 
L 182.050909 237.323406 
L 145.978182 237.323406 
L 109.905455 237.323406 
L 73.832727 272.453703 
z
" style="fill:#d62728;"/>
   </g>
   <g id="PolyCollection_15">
    <path clip-path="url(#pedd356f8a1)" d="M 73.832727 269.944396 
L 73.832727 272.453703 
L 109.905455 237.323406 
L 145.978182 237.323406 
L 182.050909 237.323406 
L 218.123636 237.323406 
L 254.196364 237.323406 
L 290.269091 237.323406 
L 326.341818 237.323406 
L 362.414545 237.323406 
L 398.487273 237.323406 
L 398.487273 232.304792 
L 398.487273 232.304792 
L 362.414545 232.304792 
L 326.341818 232.304792 
L 290.269091 232.304792 
L 254.196364 232.304792 
L 218.123636 232.304792 
L 182.050909 232.304792 
L 145.978182 232.304792 
L 109.905455 232.304792 
L 73.832727 269.944396 
z
" style="fill:#9467bd;"/>
   </g>
   <g id="PolyCollection_16">
    <path clip-path="url(#pedd356f8a1)" d="M 73.832727 267.435089 
L 73.832727 269.944396 
L 109.905455 232.304792 
L 145.978182 232.304792 
L 182.050909 232.304792 
L 218.123636 232.304792 
L 254.196364 232.304792 
L 290.269091 232.304792 
L 326.341818 232.304792 
L 362.414545 232.304792 
L 398.487273 232.304792 
L 398.487273 227.286178 
L 398.487273 227.286178 
L 362.414545 227.286178 
L 326.341818 227.286178 
L 290.269091 227.286178 
L 254.196364 227.286178 
L 218.123636 227.286178 
L 182.050909 227.286178 
L 145.978182 227.286178 
L 109.905455 227.286178 
L 73.832727 267.435089 
z
" style="fill:#8c564b;"/>
   </g>
   <g id="PolyCollection_17">
    <path clip-path="url(#pedd356f8a1)" d="M 73.832727 264.925782 
L 73.832727 267.435089 
L 109.905455 227.286178 
L 145.978182 227.286178 
L 182.050909 227.286178 
L 218.123636 227.286178 
L 254.196364 227.286178 
L 290.269091 227.286178 
L 326.341818 227.286178 
L 362.414545 227.286178 
L 398.487273 227.286178 
L 398.487273 222.267564 
L 398.487273 222.267564 
L 362.414545 222.267564 
L 326.341818 222.267564 
L 290.269091 222.267564 
L 254.196364 222.267564 
L 218.123636 222.267564 
L 182.050909 222.267564 
L 145.978182 222.267564 
L 109.905455 222.267564 
L 73.832727 264.925782 
z
" style="fill:#e377c2;"/>
   </g>
   <g id="PolyCollection_18">
    <path clip-path="url(#pedd356f8a1)" d="M 73.832727 262.416475 
L 73.832727 264.925782 
L 109.905455 222.267564 
L 145.978182 222.267564 
L 182.050909 222.267564 
L 218.123636 222.267564 
L 254.196364 222.267564 
L 290.269091 222.267564 
L 326.341818 222.267564 
L 362.414545 222.267564 
L 398.487273 222.267564 
L 398.487273 217.24895 
L 398.487273 217.24895 
L 362.414545 217.24895 
L 326.341818 217.24895 
L 290.269091 217.24895 
L 254.196364 217.24895 
L 218.123636 217.24895 
L 182.050909 217.24895 
L 145.978182 217.24895 
L 109.905455 217.24895 
L 73.832727 262.416475 
z
" style="fill:#7f7f7f;"/>
   </g>
   <g id="PolyCollection_19">
    <path clip-path="url(#pedd356f8a1)" d="M 73.832727 259.907168 
L 73.832727 262.416475 
L 109.905455 217.24895 
L 145.978182 217.24895 
L 182.050909 217.24895 
L 218.123636 217.24895 
L 254.196364 217.24895 
L 290.269091 217.24895 
L 326.341818 217.24895 
L 362.414545 217.24895 
L 398.487273 217.24895 
L 398.487273 212.230337 
L 398.487273 212.230337 
L 362.414545 212.230337 
L 326.341818 212.230337 
L 290.269091 212.230337 
L 254.196364 212.230337 
L 218.123636 212.230337 
L 182.050909 212.230337 
L 145.978182 212.230337 
L 109.905455 212.230337 
L 73.832727 259.907168 
z
" style="fill:#bcbd22;"/>
   </g>
   <g id="PolyCollection_20">
    <path clip-path="url(#pedd356f8a1)" d="M 73.832727 257.397861 
L 73.832727 259.907168 
L 109.905455 212.230337 
L 145.978182 212.230337 
L 182.050909 212.230337 
L 218.123636 212.230337 
L 254.196364 212.230337 
L 290.269091 212.230337 
L 326.341818 212.230337 
L 362.414545 212.230337 
L 398.487273 212.230337 
L 398.487273 207.211723 
L 398.487273 207.211723 
L 362.414545 207.211723 
L 326.341818 207.211723 
L 290.269091 207.211723 
L 254.196364 207.211723 
L 218.123636 207.211723 
L 182.050909 207.211723 
L 145.978182 207.211723 
L 109.905455 207.211723 
L 73.832727 257.397861 
z
" style="fill:#17becf;"/>
   </g>
   <g id="PolyCollection_21">
    <path clip-path="url(#pedd356f8a1)" d="M 73.832727 254.888554 
L 73.832727 257.397861 
L 109.905455 207.211723 
L 145.978182 207.211723 
L 182.050909 207.211723 
L 218.123636 207.211723 
L 254.196364 207.211723 
L 290.269091 207.211723 
L 326.341818 207.211723 
L 362.414545 207.211723 
L 398.487273 207.211723 
L 398.487273 202.193109 
L 398.487273 202.193109 
L 362.414545 202.193109 
L 326.341818 202.193109 
L 290.269091 202.193109 
L 254.196364 202.193109 
L 218.123636 202.193109 
L 182.050909 202.193109 
L 145.978182 202.193109 
L 109.905455 202.193109 
L 73.832727 254.888554 
z
" style="fill:#1f77b4;"/>
   </g>
   <g id="PolyCollection_22">
    <path clip-path="url(#pedd356f8a1)" d="M 73.832727 252.379248 
L 73.832727 254.888554 
L 109.905455 202.193109 
L 145.978182 202.193109 
L 182.050909 202.193109 
L 218.123636 202.193109 
L 254.196364 202.193109 
L 290.269091 202.193109 
L 326.341818 202.193109 
L 362.414545 202.193109 
L 398.487273 202.193109 
L 398.487273 197.174495 
L 398.487273 197.174495 
L 362.414545 197.174495 
L 326.341818 197.174495 
L 290.269091 197.174495 
L 254.196364 197.174495 
L 218.123636 197.174495 
L 182.050909 197.174495 
L 145.978182 197.174495 
L 109.905455 197.174495 
L 73.832727 252.379248 
z
" style="fill:#ff7f0e;"/>
   </g>
   <g id="PolyCollection_23">
    <path clip-path="url(#pedd356f8a1)" d="M 73.832727 249.869941 
L 73.832727 252.379248 
L 109.905455 197.174495 
L 145.978182 197.174495 
L 182.050909 197.174495 
L 218.123636 197.174495 
L 254.196364 197.174495 
L 290.269091 197.174495 
L 326.341818 197.174495 
L 362.414545 197.174495 
L 398.487273 197.174495 
L 398.487273 192.155881 
L 398.487273 192.155881 
L 362.414545 192.155881 
L 326.341818 192.155881 
L 290.269091 192.155881 
L 254.196364 192.155881 
L 218.123636 192.155881 
L 182.050909 192.155881 
L 145.978182 192.155881 
L 109.905455 192.155881 
L 73.832727 249.869941 
z
" style="fill:#2ca02c;"/>
   </g>
   <g id="PolyCollection_24">
    <path clip-path="url(#pedd356f8a1)" d="M 73.832727 247.360634 
L 73.832727 249.869941 
L 109.905455 192.155881 
L 145.978182 192.155881 
L 182.050909 192.155881 
L 218.123636 192.155881 
L 254.196364 192.155881 
L 290.269091 192.155881 
L 326.341818 192.155881 
L 362.414545 192.155881 
L 398.487273 192.155881 
L 398.487273 187.137267 
L 398.487273 187.137267 
L 362.414545 187.137267 
L 326.341818 187.137267 
L 290.269091 187.137267 
L 254.196364 184.62796 
L 218.123636 187.137267 
L 182.050909 187.137267 
L 145.978182 184.62796 
L 109.905455 187.137267 
L 73.832727 247.360634 
z
" style="fill:#d62728;"/>
   </g>
   <g id="PolyCollection_25">
    <path clip-path="url(#pedd356f8a1)" d="M 73.832727 244.851327 
L 73.832727 247.360634 
L 109.905455 187.137267 
L 145.978182 184.62796 
L 182.050909 187.137267 
L 218.123636 187.137267 
L 254.196364 184.62796 
L 290.269091 187.137267 
L 326.341818 187.137267 
L 362.414545 187.137267 
L 398.487273 187.137267 
L 398.487273 182.118653 
L 398.487273 182.118653 
L 362.414545 182.118653 
L 326.341818 182.118653 
L 290.269091 182.118653 
L 254.196364 179.609347 
L 218.123636 182.118653 
L 182.050909 182.118653 
L 145.978182 179.609347 
L 109.905455 182.118653 
L 73.832727 244.851327 
z
" style="fill:#9467bd;"/>
   </g>
   <g id="PolyCollection_26">
    <path clip-path="url(#pedd356f8a1)" d="M 73.832727 242.34202 
L 73.832727 244.851327 
L 109.905455 182.118653 
L 145.978182 179.609347 
L 182.050909 182.118653 
L 218.123636 182.118653 
L 254.196364 179.609347 
L 290.269091 182.118653 
L 326.341818 182.118653 
L 362.414545 182.118653 
L 398.487273 182.118653 
L 398.487273 177.10004 
L 398.487273 177.10004 
L 362.414545 177.10004 
L 326.341818 177.10004 
L 290.269091 177.10004 
L 254.196364 174.590733 
L 218.123636 177.10004 
L 182.050909 177.10004 
L 145.978182 174.590733 
L 109.905455 177.10004 
L 73.832727 242.34202 
z
" style="fill:#8c564b;"/>
   </g>
   <g id="PolyCollection_27">
    <path clip-path="url(#pedd356f8a1)" d="M 73.832727 239.832713 
L 73.832727 242.34202 
L 109.905455 177.10004 
L 145.978182 174.590733 
L 182.050909 177.10004 
L 218.123636 177.10004 
L 254.196364 174.590733 
L 290.269091 177.10004 
L 326.341818 177.10004 
L 362.414545 177.10004 
L 398.487273 177.10004 
L 398.487273 172.081426 
L 398.487273 172.081426 
L 362.414545 172.081426 
L 326.341818 172.081426 
L 290.269091 172.081426 
L 254.196364 169.572119 
L 218.123636 172.081426 
L 182.050909 172.081426 
L 145.978182 169.572119 
L 109.905455 172.081426 
L 73.832727 239.832713 
z
" style="fill:#e377c2;"/>
   </g>
   <g id="PolyCollection_28">
    <path clip-path="url(#pedd356f8a1)" d="M 73.832727 237.323406 
L 73.832727 239.832713 
L 109.905455 172.081426 
L 145.978182 169.572119 
L 182.050909 172.081426 
L 218.123636 172.081426 
L 254.196364 169.572119 
L 290.269091 172.081426 
L 326.341818 172.081426 
L 362.414545 172.081426 
L 398.487273 172.081426 
L 398.487273 167.062812 
L 398.487273 167.062812 
L 362.414545 167.062812 
L 326.341818 167.062812 
L 290.269091 167.062812 
L 254.196364 164.553505 
L 218.123636 167.062812 
L 182.050909 167.062812 
L 145.978182 164.553505 
L 109.905455 167.062812 
L 73.832727 237.323406 
z
" style="fill:#7f7f7f;"/>
   </g>
   <g id="PolyCollection_29">
    <path clip-path="url(#pedd356f8a1)" d="M 73.832727 234.814099 
L 73.832727 237.323406 
L 109.905455 167.062812 
L 145.978182 164.553505 
L 182.050909 167.062812 
L 218.123636 167.062812 
L 254.196364 164.553505 
L 290.269091 167.062812 
L 326.341818 167.062812 
L 362.414545 167.062812 
L 398.487273 167.062812 
L 398.487273 162.044198 
L 398.487273 162.044198 
L 362.414545 162.044198 
L 326.341818 162.044198 
L 290.269091 162.044198 
L 254.196364 159.534891 
L 218.123636 162.044198 
L 182.050909 162.044198 
L 145.978182 159.534891 
L 109.905455 162.044198 
L 73.832727 234.814099 
z
" style="fill:#bcbd22;"/>
   </g>
   <g id="PolyCollection_30">
    <path clip-path="url(#pedd356f8a1)" d="M 73.832727 232.304792 
L 73.832727 234.814099 
L 109.905455 162.044198 
L 145.978182 159.534891 
L 182.050909 162.044198 
L 218.123636 162.044198 
L 254.196364 159.534891 
L 290.269091 162.044198 
L 326.341818 162.044198 
L 362.414545 162.044198 
L 398.487273 162.044198 
L 398.487273 157.025584 
L 398.487273 157.025584 
L 362.414545 157.025584 
L 326.341818 157.025584 
L 290.269091 157.025584 
L 254.196364 154.516277 
L 218.123636 157.025584 
L 182.050909 157.025584 
L 145.978182 154.516277 
L 109.905455 157.025584 
L 73.832727 232.304792 
z
" style="fill:#17becf;"/>
   </g>
   <g id="PolyCollection_31">
    <path clip-path="url(#pedd356f8a1)" d="M 73.832727 229.795485 
L 73.832727 232.304792 
L 109.905455 157.025584 
L 145.978182 154.516277 
L 182.050909 157.025584 
L 218.123636 157.025584 
L 254.196364 154.516277 
L 290.269091 157.025584 
L 326.341818 157.025584 
L 362.414545 157.025584 
L 398.487273 157.025584 
L 398.487273 152.00697 
L 398.487273 152.00697 
L 362.414545 152.00697 
L 326.341818 152.00697 
L 290.269091 152.00697 
L 254.196364 149.497663 
L 218.123636 152.00697 
L 182.050909 152.00697 
L 145.978182 149.497663 
L 109.905455 152.00697 
L 73.832727 229.795485 
z
" style="fill:#1f77b4;"/>
   </g>
   <g id="PolyCollection_32">
    <path clip-path="url(#pedd356f8a1)" d="M 73.832727 227.286178 
L 73.832727 229.795485 
L 109.905455 152.00697 
L 145.978182 149.497663 
L 182.050909 152.00697 
L 218.123636 152.00697 
L 254.196364 149.497663 
L 290.269091 152.00697 
L 326.341818 152.00697 
L 362.414545 152.00697 
L 398.487273 152.00697 
L 398.487273 146.988356 
L 398.487273 146.988356 
L 362.414545 146.988356 
L 326.341818 146.988356 
L 290.269091 146.988356 
L 254.196364 144.47905 
L 218.123636 146.988356 
L 182.050909 146.988356 
L 145.978182 144.47905 
L 109.905455 146.988356 
L 73.832727 227.286178 
z
" style="fill:#ff7f0e;"/>
   </g>
   <g id="PolyCollection_33">
    <path clip-path="url(#pedd356f8a1)" d="M 73.832727 224.776871 
L 73.832727 227.286178 
L 109.905455 146.988356 
L 145.978182 144.47905 
L 182.050909 146.988356 
L 218.123636 146.988356 
L 254.196364 144.47905 
L 290.269091 146.988356 
L 326.341818 146.988356 
L 362.414545 146.988356 
L 398.487273 146.988356 
L 398.487273 141.969743 
L 398.487273 141.969743 
L 362.414545 141.969743 
L 326.341818 141.969743 
L 290.269091 141.969743 
L 254.196364 139.460436 
L 218.123636 141.969743 
L 182.050909 141.969743 
L 145.978182 139.460436 
L 109.905455 141.969743 
L 73.832727 224.776871 
z
" style="fill:#2ca02c;"/>
   </g>
   <g id="PolyCollection_34">
    <path clip-path="url(#pedd356f8a1)" d="M 73.832727 222.267564 
L 73.832727 224.776871 
L 109.905455 141.969743 
L 145.978182 139.460436 
L 182.050909 141.969743 
L 218.123636 141.969743 
L 254.196364 139.460436 
L 290.269091 141.969743 
L 326.341818 141.969743 
L 362.414545 141.969743 
L 398.487273 141.969743 
L 398.487273 136.951129 
L 398.487273 136.951129 
L 362.414545 136.951129 
L 326.341818 136.951129 
L 290.269091 136.951129 
L 254.196364 134.441822 
L 218.123636 136.951129 
L 182.050909 136.951129 
L 145.978182 134.441822 
L 109.905455 136.951129 
L 73.832727 222.267564 
z
" style="fill:#d62728;"/>
   </g>
   <g id="PolyCollection_35">
    <path clip-path="url(#pedd356f8a1)" d="M 73.832727 219.758257 
L 73.832727 222.267564 
L 109.905455 136.951129 
L 145.978182 134.441822 
L 182.050909 136.951129 
L 218.123636 136.951129 
L 254.196364 134.441822 
L 290.269091 136.951129 
L 326.341818 136.951129 
L 362.414545 136.951129 
L 398.487273 136.951129 
L 398.487273 131.932515 
L 398.487273 131.932515 
L 362.414545 131.932515 
L 326.341818 131.932515 
L 290.269091 131.932515 
L 254.196364 129.423208 
L 218.123636 131.932515 
L 182.050909 131.932515 
L 145.978182 129.423208 
L 109.905455 131.932515 
L 73.832727 219.758257 
z
" style="fill:#9467bd;"/>
   </g>
   <g id="PolyCollection_36">
    <path clip-path="url(#pedd356f8a1)" d="M 73.832727 217.24895 
L 73.832727 219.758257 
L 109.905455 131.932515 
L 145.978182 129.423208 
L 182.050909 131.932515 
L 218.123636 131.932515 
L 254.196364 129.423208 
L 290.269091 131.932515 
L 326.341818 131.932515 
L 362.414545 131.932515 
L 398.487273 131.932515 
L 398.487273 126.913901 
L 398.487273 126.913901 
L 362.414545 126.913901 
L 326.341818 126.913901 
L 290.269091 126.913901 
L 254.196364 124.404594 
L 218.123636 126.913901 
L 182.050909 126.913901 
L 145.978182 124.404594 
L 109.905455 126.913901 
L 73.832727 217.24895 
z
" style="fill:#8c564b;"/>
   </g>
   <g id="PolyCollection_37">
    <path clip-path="url(#pedd356f8a1)" d="M 73.832727 214.739644 
L 73.832727 217.24895 
L 109.905455 126.913901 
L 145.978182 124.404594 
L 182.050909 126.913901 
L 218.123636 126.913901 
L 254.196364 124.404594 
L 290.269091 126.913901 
L 326.341818 126.913901 
L 362.414545 126.913901 
L 398.487273 126.913901 
L 398.487273 121.895287 
L 398.487273 121.895287 
L 362.414545 121.895287 
L 326.341818 121.895287 
L 290.269091 121.895287 
L 254.196364 119.38598 
L 218.123636 121.895287 
L 182.050909 121.895287 
L 145.978182 119.38598 
L 109.905455 121.895287 
L 73.832727 214.739644 
z
" style="fill:#e377c2;"/>
   </g>
   <g id="PolyCollection_38">
    <path clip-path="url(#pedd356f8a1)" d="M 73.832727 212.230337 
L 73.832727 214.739644 
L 109.905455 121.895287 
L 145.978182 119.38598 
L 182.050909 121.895287 
L 218.123636 121.895287 
L 254.196364 119.38598 
L 290.269091 121.895287 
L 326.341818 121.895287 
L 362.414545 121.895287 
L 398.487273 121.895287 
L 398.487273 116.876673 
L 398.487273 116.876673 
L 362.414545 116.876673 
L 326.341818 116.876673 
L 290.269091 116.876673 
L 254.196364 114.367366 
L 218.123636 116.876673 
L 182.050909 116.876673 
L 145.978182 114.367366 
L 109.905455 116.876673 
L 73.832727 212.230337 
z
" style="fill:#7f7f7f;"/>
   </g>
   <g id="PolyCollection_39">
    <path clip-path="url(#pedd356f8a1)" d="M 73.832727 209.72103 
L 73.832727 212.230337 
L 109.905455 116.876673 
L 145.978182 114.367366 
L 182.050909 116.876673 
L 218.123636 116.876673 
L 254.196364 114.367366 
L 290.269091 116.876673 
L 326.341818 116.876673 
L 362.414545 116.876673 
L 398.487273 116.876673 
L 398.487273 111.858059 
L 398.487273 111.858059 
L 362.414545 111.858059 
L 326.341818 111.858059 
L 290.269091 111.858059 
L 254.196364 109.348752 
L 218.123636 111.858059 
L 182.050909 111.858059 
L 145.978182 109.348752 
L 109.905455 111.858059 
L 73.832727 209.72103 
z
" style="fill:#bcbd22;"/>
   </g>
   <g id="PolyCollection_40">
    <path clip-path="url(#pedd356f8a1)" d="M 73.832727 207.211723 
L 73.832727 209.72103 
L 109.905455 111.858059 
L 145.978182 109.348752 
L 182.050909 111.858059 
L 218.123636 111.858059 
L 254.196364 109.348752 
L 290.269091 111.858059 
L 326.341818 111.858059 
L 362.414545 111.858059 
L 398.487273 111.858059 
L 398.487273 106.839446 
L 398.487273 106.839446 
L 362.414545 106.839446 
L 326.341818 106.839446 
L 290.269091 106.839446 
L 254.196364 104.330139 
L 218.123636 106.839446 
L 182.050909 106.839446 
L 145.978182 104.330139 
L 109.905455 106.839446 
L 73.832727 207.211723 
z
" style="fill:#17becf;"/>
   </g>
   <g id="PolyCollection_41">
    <path clip-path="url(#pedd356f8a1)" d="M 73.832727 204.702416 
L 73.832727 207.211723 
L 109.905455 106.839446 
L 145.978182 104.330139 
L 182.050909 106.839446 
L 218.123636 106.839446 
L 254.196364 104.330139 
L 290.269091 106.839446 
L 326.341818 106.839446 
L 362.414545 106.839446 
L 398.487273 106.839446 
L 398.487273 101.820832 
L 398.487273 101.820832 
L 362.414545 101.820832 
L 326.341818 101.820832 
L 290.269091 101.820832 
L 254.196364 99.311525 
L 218.123636 101.820832 
L 182.050909 101.820832 
L 145.978182 99.311525 
L 109.905455 101.820832 
L 73.832727 204.702416 
z
" style="fill:#1f77b4;"/>
   </g>
   <g id="PolyCollection_42">
    <path clip-path="url(#pedd356f8a1)" d="M 73.832727 202.193109 
L 73.832727 204.702416 
L 109.905455 101.820832 
L 145.978182 99.311525 
L 182.050909 101.820832 
L 218.123636 101.820832 
L 254.196364 99.311525 
L 290.269091 101.820832 
L 326.341818 101.820832 
L 362.414545 101.820832 
L 398.487273 101.820832 
L 398.487273 96.802218 
L 398.487273 96.802218 
L 362.414545 96.802218 
L 326.341818 96.802218 
L 290.269091 96.802218 
L 254.196364 94.292911 
L 218.123636 96.802218 
L 182.050909 96.802218 
L 145.978182 94.292911 
L 109.905455 96.802218 
L 73.832727 202.193109 
z
" style="fill:#ff7f0e;"/>
   </g>
   <g id="PolyCollection_43">
    <path clip-path="url(#pedd356f8a1)" d="M 73.832727 199.683802 
L 73.832727 202.193109 
L 109.905455 96.802218 
L 145.978182 94.292911 
L 182.050909 96.802218 
L 218.123636 96.802218 
L 254.196364 94.292911 
L 290.269091 96.802218 
L 326.341818 96.802218 
L 362.414545 96.802218 
L 398.487273 96.802218 
L 398.487273 91.783604 
L 398.487273 91.783604 
L 362.414545 91.783604 
L 326.341818 91.783604 
L 290.269091 91.783604 
L 254.196364 89.274297 
L 218.123636 91.783604 
L 182.050909 91.783604 
L 145.978182 89.274297 
L 109.905455 91.783604 
L 73.832727 199.683802 
z
" style="fill:#2ca02c;"/>
   </g>
   <g id="PolyCollection_44">
    <path clip-path="url(#pedd356f8a1)" d="M 73.832727 197.174495 
L 73.832727 199.683802 
L 109.905455 91.783604 
L 145.978182 89.274297 
L 182.050909 91.783604 
L 218.123636 91.783604 
L 254.196364 89.274297 
L 290.269091 91.783604 
L 326.341818 91.783604 
L 362.414545 91.783604 
L 398.487273 91.783604 
L 398.487273 86.76499 
L 398.487273 86.76499 
L 362.414545 86.76499 
L 326.341818 86.76499 
L 290.269091 86.76499 
L 254.196364 84.255683 
L 218.123636 86.76499 
L 182.050909 86.76499 
L 145.978182 84.255683 
L 109.905455 86.76499 
L 73.832727 197.174495 
z
" style="fill:#d62728;"/>
   </g>
   <g id="PolyCollection_45">
    <path clip-path="url(#pedd356f8a1)" d="M 73.832727 194.665188 
L 73.832727 197.174495 
L 109.905455 86.76499 
L 145.978182 84.255683 
L 182.050909 86.76499 
L 218.123636 86.76499 
L 254.196364 84.255683 
L 290.269091 86.76499 
L 326.341818 86.76499 
L 362.414545 86.76499 
L 398.487273 86.76499 
L 398.487273 81.746376 
L 398.487273 81.746376 
L 362.414545 81.746376 
L 326.341818 81.746376 
L 290.269091 81.746376 
L 254.196364 79.237069 
L 218.123636 81.746376 
L 182.050909 81.746376 
L 145.978182 79.237069 
L 109.905455 81.746376 
L 73.832727 194.665188 
z
" style="fill:#9467bd;"/>
   </g>
   <g id="PolyCollection_46">
    <path clip-path="url(#pedd356f8a1)" d="M 73.832727 192.155881 
L 73.832727 194.665188 
L 109.905455 81.746376 
L 145.978182 79.237069 
L 182.050909 81.746376 
L 218.123636 81.746376 
L 254.196364 79.237069 
L 290.269091 81.746376 
L 326.341818 81.746376 
L 362.414545 81.746376 
L 398.487273 81.746376 
L 398.487273 76.727762 
L 398.487273 76.727762 
L 362.414545 76.727762 
L 326.341818 76.727762 
L 290.269091 76.727762 
L 254.196364 74.218455 
L 218.123636 76.727762 
L 182.050909 76.727762 
L 145.978182 74.218455 
L 109.905455 76.727762 
L 73.832727 192.155881 
z
" style="fill:#8c564b;"/>
   </g>
   <g id="PolyCollection_47">
    <path clip-path="url(#pedd356f8a1)" d="M 73.832727 189.646574 
L 73.832727 192.155881 
L 109.905455 76.727762 
L 145.978182 74.218455 
L 182.050909 76.727762 
L 218.123636 76.727762 
L 254.196364 74.218455 
L 290.269091 76.727762 
L 326.341818 76.727762 
L 362.414545 76.727762 
L 398.487273 76.727762 
L 398.487273 71.709149 
L 398.487273 71.709149 
L 362.414545 71.709149 
L 326.341818 71.709149 
L 290.269091 71.709149 
L 254.196364 69.199842 
L 218.123636 71.709149 
L 182.050909 71.709149 
L 145.978182 69.199842 
L 109.905455 71.709149 
L 73.832727 189.646574 
z
" style="fill:#e377c2;"/>
   </g>
   <g id="PolyCollection_48">
    <path clip-path="url(#pedd356f8a1)" d="M 73.832727 187.137267 
L 73.832727 189.646574 
L 109.905455 71.709149 
L 145.978182 69.199842 
L 182.050909 71.709149 
L 218.123636 71.709149 
L 254.196364 69.199842 
L 290.269091 71.709149 
L 326.341818 71.709149 
L 362.414545 71.709149 
L 398.487273 71.709149 
L 398.487273 66.690535 
L 398.487273 66.690535 
L 362.414545 66.690535 
L 326.341818 66.690535 
L 290.269091 66.690535 
L 254.196364 64.181228 
L 218.123636 66.690535 
L 182.050909 66.690535 
L 145.978182 64.181228 
L 109.905455 66.690535 
L 73.832727 187.137267 
z
" style="fill:#7f7f7f;"/>
   </g>
   <g id="PolyCollection_49">
    <path clip-path="url(#pedd356f8a1)" d="M 73.832727 184.62796 
L 73.832727 187.137267 
L 109.905455 66.690535 
L 145.978182 64.181228 
L 182.050909 66.690535 
L 218.123636 66.690535 
L 254.196364 64.181228 
L 290.269091 66.690535 
L 326.341818 66.690535 
L 362.414545 66.690535 
L 398.487273 66.690535 
L 398.487273 61.671921 
L 398.487273 61.671921 
L 362.414545 61.671921 
L 326.341818 61.671921 
L 290.269091 61.671921 
L 254.196364 59.162614 
L 218.123636 61.671921 
L 182.050909 61.671921 
L 145.978182 59.162614 
L 109.905455 61.671921 
L 73.832727 184.62796 
z
" style="fill:#bcbd22;"/>
   </g>
   <g id="PolyCollection_50">
    <path clip-path="url(#pedd356f8a1)" d="M 73.832727 182.118653 
L 73.832727 184.62796 
L 109.905455 61.671921 
L 145.978182 59.162614 
L 182.050909 61.671921 
L 218.123636 61.671921 
L 254.196364 59.162614 
L 290.269091 61.671921 
L 326.341818 61.671921 
L 362.414545 61.671921 
L 398.487273 61.671921 
L 398.487273 56.653307 
L 398.487273 56.653307 
L 362.414545 56.653307 
L 326.341818 56.653307 
L 290.269091 56.653307 
L 254.196364 54.144 
L 218.123636 56.653307 
L 182.050909 56.653307 
L 145.978182 54.144 
L 109.905455 56.653307 
L 73.832727 182.118653 
z
" style="fill:#17becf;"/>
   </g>
   <g id="matplotlib.axis_1">
    <g id="xtick_1">
     <g id="line2d_1">
      <defs>
       <path d="M 0 0 
L 0 3.5 
" id="mb10de1ac81" style="stroke:#000000;stroke-width:0.8;"/>
      </defs>
      <g>
       <use style="stroke:#000000;stroke-width:0.8;" x="73.832727" xlink:href="#mb10de1ac81" y="307.584"/>
      </g>
     </g>
     <g id="text_1">
      <!-- 0 -->
      <g transform="translate(70.651477 322.182437)scale(0.1 -0.1)">
       <defs>
        <path d="M 31.78125 66.40625 
Q 24.171875 66.40625 20.328125 58.90625 
Q 16.5 51.421875 16.5 36.375 
Q 16.5 21.390625 20.328125 13.890625 
Q 24.171875 6.390625 31.78125 6.390625 
Q 39.453125 6.390625 43.28125 13.890625 
Q 47.125 21.390625 47.125 36.375 
Q 47.125 51.421875 43.28125 58.90625 
Q 39.453125 66.40625 31.78125 66.40625 
z
M 31.78125 74.21875 
Q 44.046875 74.21875 50.515625 64.515625 
Q 56.984375 54.828125 56.984375 36.375 
Q 56.984375 17.96875 50.515625 8.265625 
Q 44.046875 -1.421875 31.78125 -1.421875 
Q 19.53125 -1.421875 13.0625 8.265625 
Q 6.59375 17.96875 6.59375 36.375 
Q 6.59375 54.828125 13.0625 64.515625 
Q 19.53125 74.21875 31.78125 74.21875 
z
" id="DejaVuSans-48"/>
       </defs>
       <use xlink:href="#DejaVuSans-48"/>
      </g>
     </g>
    </g>
    <g id="xtick_2">
     <g id="line2d_2">
      <g>
       <use style="stroke:#000000;stroke-width:0.8;" x="145.978182" xlink:href="#mb10de1ac81" y="307.584"/>
      </g>
     </g>
     <g id="text_2">
      <!-- 2 -->
      <g transform="translate(142.796932 322.182437)scale(0.1 -0.1)">
       <defs>
        <path d="M 19.1875 8.296875 
L 53.609375 8.296875 
L 53.609375 0 
L 7.328125 0 
L 7.328125 8.296875 
Q 12.9375 14.109375 22.625 23.890625 
Q 32.328125 33.6875 34.8125 36.53125 
Q 39.546875 41.84375 41.421875 45.53125 
Q 43.3125 49.21875 43.3125 52.78125 
Q 43.3125 58.59375 39.234375 62.25 
Q 35.15625 65.921875 28.609375 65.921875 
Q 23.96875 65.921875 18.8125 64.3125 
Q 13.671875 62.703125 7.8125 59.421875 
L 7.8125 69.390625 
Q 13.765625 71.78125 18.9375 73 
Q 24.125 74.21875 28.421875 74.21875 
Q 39.75 74.21875 46.484375 68.546875 
Q 53.21875 62.890625 53.21875 53.421875 
Q 53.21875 48.921875 51.53125 44.890625 
Q 49.859375 40.875 45.40625 35.40625 
Q 44.1875 33.984375 37.640625 27.21875 
Q 31.109375 20.453125 19.1875 8.296875 
z
" id="DejaVuSans-50"/>
       </defs>
       <use xlink:href="#DejaVuSans-50"/>
      </g>
     </g>
    </g>
    <g id="xtick_3">
     <g id="line2d_3">
      <g>
       <use style="stroke:#000000;stroke-width:0.8;" x="218.123636" xlink:href="#mb10de1ac81" y="307.584"/>
      </g>
     </g>
     <g id="text_3">
      <!-- 4 -->
      <g transform="translate(214.942386 322.182437)scale(0.1 -0.1)">
       <defs>
        <path d="M 37.796875 64.3125 
L 12.890625 25.390625 
L 37.796875 25.390625 
z
M 35.203125 72.90625 
L 47.609375 72.90625 
L 47.609375 25.390625 
L 58.015625 25.390625 
L 58.015625 17.1875 
L 47.609375 17.1875 
L 47.609375 0 
L 37.796875 0 
L 37.796875 17.1875 
L 4.890625 17.1875 
L 4.890625 26.703125 
z
" id="DejaVuSans-52"/>
       </defs>
       <use xlink:href="#DejaVuSans-52"/>
      </g>
     </g>
    </g>
    <g id="xtick_4">
     <g id="line2d_4">
      <g>
       <use style="stroke:#000000;stroke-width:0.8;" x="290.269091" xlink:href="#mb10de1ac81" y="307.584"/>
      </g>
     </g>
     <g id="text_4">
      <!-- 6 -->
      <g transform="translate(287.087841 322.182437)scale(0.1 -0.1)">
       <defs>
        <path d="M 33.015625 40.375 
Q 26.375 40.375 22.484375 35.828125 
Q 18.609375 31.296875 18.609375 23.390625 
Q 18.609375 15.53125 22.484375 10.953125 
Q 26.375 6.390625 33.015625 6.390625 
Q 39.65625 6.390625 43.53125 10.953125 
Q 47.40625 15.53125 47.40625 23.390625 
Q 47.40625 31.296875 43.53125 35.828125 
Q 39.65625 40.375 33.015625 40.375 
z
M 52.59375 71.296875 
L 52.59375 62.3125 
Q 48.875 64.0625 45.09375 64.984375 
Q 41.3125 65.921875 37.59375 65.921875 
Q 27.828125 65.921875 22.671875 59.328125 
Q 17.53125 52.734375 16.796875 39.40625 
Q 19.671875 43.65625 24.015625 45.921875 
Q 28.375 48.1875 33.59375 48.1875 
Q 44.578125 48.1875 50.953125 41.515625 
Q 57.328125 34.859375 57.328125 23.390625 
Q 57.328125 12.15625 50.6875 5.359375 
Q 44.046875 -1.421875 33.015625 -1.421875 
Q 20.359375 -1.421875 13.671875 8.265625 
Q 6.984375 17.96875 6.984375 36.375 
Q 6.984375 53.65625 15.1875 63.9375 
Q 23.390625 74.21875 37.203125 74.21875 
Q 40.921875 74.21875 44.703125 73.484375 
Q 48.484375 72.75 52.59375 71.296875 
z
" id="DejaVuSans-54"/>
       </defs>
       <use xlink:href="#DejaVuSans-54"/>
      </g>
     </g>
    </g>
    <g id="xtick_5">
     <g id="line2d_5">
      <g>
       <use style="stroke:#000000;stroke-width:0.8;" x="362.414545" xlink:href="#mb10de1ac81" y="307.584"/>
      </g>
     </g>
     <g id="text_5">
      <!-- 8 -->
      <g transform="translate(359.233295 322.182437)scale(0.1 -0.1)">
       <defs>
        <path d="M 31.78125 34.625 
Q 24.75 34.625 20.71875 30.859375 
Q 16.703125 27.09375 16.703125 20.515625 
Q 16.703125 13.921875 20.71875 10.15625 
Q 24.75 6.390625 31.78125 6.390625 
Q 38.8125 6.390625 42.859375 10.171875 
Q 46.921875 13.96875 46.921875 20.515625 
Q 46.921875 27.09375 42.890625 30.859375 
Q 38.875 34.625 31.78125 34.625 
z
M 21.921875 38.8125 
Q 15.578125 40.375 12.03125 44.71875 
Q 8.5 49.078125 8.5 55.328125 
Q 8.5 64.0625 14.71875 69.140625 
Q 20.953125 74.21875 31.78125 74.21875 
Q 42.671875 74.21875 48.875 69.140625 
Q 55.078125 64.0625 55.078125 55.328125 
Q 55.078125 49.078125 51.53125 44.71875 
Q 48 40.375 41.703125 38.8125 
Q 48.828125 37.15625 52.796875 32.3125 
Q 56.78125 27.484375 56.78125 20.515625 
Q 56.78125 9.90625 50.3125 4.234375 
Q 43.84375 -1.421875 31.78125 -1.421875 
Q 19.734375 -1.421875 13.25 4.234375 
Q 6.78125 9.90625 6.78125 20.515625 
Q 6.78125 27.484375 10.78125 32.3125 
Q 14.796875 37.15625 21.921875 38.8125 
z
M 18.3125 54.390625 
Q 18.3125 48.734375 21.84375 45.5625 
Q 25.390625 42.390625 31.78125 42.390625 
Q 38.140625 42.390625 41.71875 45.5625 
Q 45.3125 48.734375 45.3125 54.390625 
Q 45.3125 60.0625 41.71875 63.234375 
Q 38.140625 66.40625 31.78125 66.40625 
Q 25.390625 66.40625 21.84375 63.234375 
Q 18.3125 60.0625 18.3125 54.390625 
z
" id="DejaVuSans-56"/>
       </defs>
       <use xlink:href="#DejaVuSans-56"/>
      </g>
     </g>
    </g>
    <g id="text_6">
     <!-- Generations -->
     <g transform="translate(205.662344 335.860562)scale(0.1 -0.1)">
      <defs>
       <path d="M 59.515625 10.40625 
L 59.515625 29.984375 
L 43.40625 29.984375 
L 43.40625 38.09375 
L 69.28125 38.09375 
L 69.28125 6.78125 
Q 63.578125 2.734375 56.6875 0.65625 
Q 49.8125 -1.421875 42 -1.421875 
Q 24.90625 -1.421875 15.25 8.5625 
Q 5.609375 18.5625 5.609375 36.375 
Q 5.609375 54.25 15.25 64.234375 
Q 24.90625 74.21875 42 74.21875 
Q 49.125 74.21875 55.546875 72.453125 
Q 61.96875 70.703125 67.390625 67.28125 
L 67.390625 56.78125 
Q 61.921875 61.421875 55.765625 63.765625 
Q 49.609375 66.109375 42.828125 66.109375 
Q 29.4375 66.109375 22.71875 58.640625 
Q 16.015625 51.171875 16.015625 36.375 
Q 16.015625 21.625 22.71875 14.15625 
Q 29.4375 6.6875 42.828125 6.6875 
Q 48.046875 6.6875 52.140625 7.59375 
Q 56.25 8.5 59.515625 10.40625 
z
" id="DejaVuSans-71"/>
       <path d="M 56.203125 29.59375 
L 56.203125 25.203125 
L 14.890625 25.203125 
Q 15.484375 15.921875 20.484375 11.0625 
Q 25.484375 6.203125 34.421875 6.203125 
Q 39.59375 6.203125 44.453125 7.46875 
Q 49.3125 8.734375 54.109375 11.28125 
L 54.109375 2.78125 
Q 49.265625 0.734375 44.1875 -0.34375 
Q 39.109375 -1.421875 33.890625 -1.421875 
Q 20.796875 -1.421875 13.15625 6.1875 
Q 5.515625 13.8125 5.515625 26.8125 
Q 5.515625 40.234375 12.765625 48.109375 
Q 20.015625 56 32.328125 56 
Q 43.359375 56 49.78125 48.890625 
Q 56.203125 41.796875 56.203125 29.59375 
z
M 47.21875 32.234375 
Q 47.125 39.59375 43.09375 43.984375 
Q 39.0625 48.390625 32.421875 48.390625 
Q 24.90625 48.390625 20.390625 44.140625 
Q 15.875 39.890625 15.1875 32.171875 
z
" id="DejaVuSans-101"/>
       <path d="M 54.890625 33.015625 
L 54.890625 0 
L 45.90625 0 
L 45.90625 32.71875 
Q 45.90625 40.484375 42.875 44.328125 
Q 39.84375 48.1875 33.796875 48.1875 
Q 26.515625 48.1875 22.3125 43.546875 
Q 18.109375 38.921875 18.109375 30.90625 
L 18.109375 0 
L 9.078125 0 
L 9.078125 54.6875 
L 18.109375 54.6875 
L 18.109375 46.1875 
Q 21.34375 51.125 25.703125 53.5625 
Q 30.078125 56 35.796875 56 
Q 45.21875 56 50.046875 50.171875 
Q 54.890625 44.34375 54.890625 33.015625 
z
" id="DejaVuSans-110"/>
       <path d="M 41.109375 46.296875 
Q 39.59375 47.171875 37.8125 47.578125 
Q 36.03125 48 33.890625 48 
Q 26.265625 48 22.1875 43.046875 
Q 18.109375 38.09375 18.109375 28.8125 
L 18.109375 0 
L 9.078125 0 
L 9.078125 54.6875 
L 18.109375 54.6875 
L 18.109375 46.1875 
Q 20.953125 51.171875 25.484375 53.578125 
Q 30.03125 56 36.53125 56 
Q 37.453125 56 38.578125 55.875 
Q 39.703125 55.765625 41.0625 55.515625 
z
" id="DejaVuSans-114"/>
       <path d="M 34.28125 27.484375 
Q 23.390625 27.484375 19.1875 25 
Q 14.984375 22.515625 14.984375 16.5 
Q 14.984375 11.71875 18.140625 8.90625 
Q 21.296875 6.109375 26.703125 6.109375 
Q 34.1875 6.109375 38.703125 11.40625 
Q 43.21875 16.703125 43.21875 25.484375 
L 43.21875 27.484375 
z
M 52.203125 31.203125 
L 52.203125 0 
L 43.21875 0 
L 43.21875 8.296875 
Q 40.140625 3.328125 35.546875 0.953125 
Q 30.953125 -1.421875 24.3125 -1.421875 
Q 15.921875 -1.421875 10.953125 3.296875 
Q 6 8.015625 6 15.921875 
Q 6 25.140625 12.171875 29.828125 
Q 18.359375 34.515625 30.609375 34.515625 
L 43.21875 34.515625 
L 43.21875 35.40625 
Q 43.21875 41.609375 39.140625 45 
Q 35.0625 48.390625 27.6875 48.390625 
Q 23 48.390625 18.546875 47.265625 
Q 14.109375 46.140625 10.015625 43.890625 
L 10.015625 52.203125 
Q 14.9375 54.109375 19.578125 55.046875 
Q 24.21875 56 28.609375 56 
Q 40.484375 56 46.34375 49.84375 
Q 52.203125 43.703125 52.203125 31.203125 
z
" id="DejaVuSans-97"/>
       <path d="M 18.3125 70.21875 
L 18.3125 54.6875 
L 36.8125 54.6875 
L 36.8125 47.703125 
L 18.3125 47.703125 
L 18.3125 18.015625 
Q 18.3125 11.328125 20.140625 9.421875 
Q 21.96875 7.515625 27.59375 7.515625 
L 36.8125 7.515625 
L 36.8125 0 
L 27.59375 0 
Q 17.1875 0 13.234375 3.875 
Q 9.28125 7.765625 9.28125 18.015625 
L 9.28125 47.703125 
L 2.6875 47.703125 
L 2.6875 54.6875 
L 9.28125 54.6875 
L 9.28125 70.21875 
z
" id="DejaVuSans-116"/>
       <path d="M 9.421875 54.6875 
L 18.40625 54.6875 
L 18.40625 0 
L 9.421875 0 
z
M 9.421875 75.984375 
L 18.40625 75.984375 
L 18.40625 64.59375 
L 9.421875 64.59375 
z
" id="DejaVuSans-105"/>
       <path d="M 30.609375 48.390625 
Q 23.390625 48.390625 19.1875 42.75 
Q 14.984375 37.109375 14.984375 27.296875 
Q 14.984375 17.484375 19.15625 11.84375 
Q 23.34375 6.203125 30.609375 6.203125 
Q 37.796875 6.203125 41.984375 11.859375 
Q 46.1875 17.53125 46.1875 27.296875 
Q 46.1875 37.015625 41.984375 42.703125 
Q 37.796875 48.390625 30.609375 48.390625 
z
M 30.609375 56 
Q 42.328125 56 49.015625 48.375 
Q 55.71875 40.765625 55.71875 27.296875 
Q 55.71875 13.875 49.015625 6.21875 
Q 42.328125 -1.421875 30.609375 -1.421875 
Q 18.84375 -1.421875 12.171875 6.21875 
Q 5.515625 13.875 5.515625 27.296875 
Q 5.515625 40.765625 12.171875 48.375 
Q 18.84375 56 30.609375 56 
z
" id="DejaVuSans-111"/>
       <path d="M 44.28125 53.078125 
L 44.28125 44.578125 
Q 40.484375 46.53125 36.375 47.5 
Q 32.28125 48.484375 27.875 48.484375 
Q 21.1875 48.484375 17.84375 46.4375 
Q 14.5 44.390625 14.5 40.28125 
Q 14.5 37.15625 16.890625 35.375 
Q 19.28125 33.59375 26.515625 31.984375 
L 29.59375 31.296875 
Q 39.15625 29.25 43.1875 25.515625 
Q 47.21875 21.78125 47.21875 15.09375 
Q 47.21875 7.46875 41.1875 3.015625 
Q 35.15625 -1.421875 24.609375 -1.421875 
Q 20.21875 -1.421875 15.453125 -0.5625 
Q 10.6875 0.296875 5.421875 2 
L 5.421875 11.28125 
Q 10.40625 8.6875 15.234375 7.390625 
Q 20.0625 6.109375 24.8125 6.109375 
Q 31.15625 6.109375 34.5625 8.28125 
Q 37.984375 10.453125 37.984375 14.40625 
Q 37.984375 18.0625 35.515625 20.015625 
Q 33.0625 21.96875 24.703125 23.78125 
L 21.578125 24.515625 
Q 13.234375 26.265625 9.515625 29.90625 
Q 5.8125 33.546875 5.8125 39.890625 
Q 5.8125 47.609375 11.28125 51.796875 
Q 16.75 56 26.8125 56 
Q 31.78125 56 36.171875 55.265625 
Q 40.578125 54.546875 44.28125 53.078125 
z
" id="DejaVuSans-115"/>
      </defs>
      <use xlink:href="#DejaVuSans-71"/>
      <use x="77.490234" xlink:href="#DejaVuSans-101"/>
      <use x="139.013672" xlink:href="#DejaVuSans-110"/>
      <use x="202.392578" xlink:href="#DejaVuSans-101"/>
      <use x="263.916016" xlink:href="#DejaVuSans-114"/>
      <use x="305.029297" xlink:href="#DejaVuSans-97"/>
      <use x="366.308594" xlink:href="#DejaVuSans-116"/>
      <use x="405.517578" xlink:href="#DejaVuSans-105"/>
      <use x="433.300781" xlink:href="#DejaVuSans-111"/>
      <use x="494.482422" xlink:href="#DejaVuSans-110"/>
      <use x="557.861328" xlink:href="#DejaVuSans-115"/>
     </g>
    </g>
   </g>
   <g id="matplotlib.axis_2">
    <g id="ytick_1">
     <g id="line2d_6">
      <defs>
       <path d="M 0 0 
L -3.5 0 
" id="m73b8171caa" style="stroke:#000000;stroke-width:0.8;"/>
      </defs>
      <g>
       <use style="stroke:#000000;stroke-width:0.8;" x="57.6" xlink:href="#m73b8171caa" y="307.584"/>
      </g>
     </g>
     <g id="text_7">
      <!-- 0 -->
      <g transform="translate(44.2375 311.383219)scale(0.1 -0.1)">
       <use xlink:href="#DejaVuSans-48"/>
      </g>
     </g>
    </g>
    <g id="ytick_2">
     <g id="line2d_7">
      <g>
       <use style="stroke:#000000;stroke-width:0.8;" x="57.6" xlink:href="#m73b8171caa" y="257.397861"/>
      </g>
     </g>
     <g id="text_8">
      <!-- 20 -->
      <g transform="translate(37.875 261.19708)scale(0.1 -0.1)">
       <use xlink:href="#DejaVuSans-50"/>
       <use x="63.623047" xlink:href="#DejaVuSans-48"/>
      </g>
     </g>
    </g>
    <g id="ytick_3">
     <g id="line2d_8">
      <g>
       <use style="stroke:#000000;stroke-width:0.8;" x="57.6" xlink:href="#m73b8171caa" y="207.211723"/>
      </g>
     </g>
     <g id="text_9">
      <!-- 40 -->
      <g transform="translate(37.875 211.010942)scale(0.1 -0.1)">
       <use xlink:href="#DejaVuSans-52"/>
       <use x="63.623047" xlink:href="#DejaVuSans-48"/>
      </g>
     </g>
    </g>
    <g id="ytick_4">
     <g id="line2d_9">
      <g>
       <use style="stroke:#000000;stroke-width:0.8;" x="57.6" xlink:href="#m73b8171caa" y="157.025584"/>
      </g>
     </g>
     <g id="text_10">
      <!-- 60 -->
      <g transform="translate(37.875 160.824803)scale(0.1 -0.1)">
       <use xlink:href="#DejaVuSans-54"/>
       <use x="63.623047" xlink:href="#DejaVuSans-48"/>
      </g>
     </g>
    </g>
    <g id="ytick_5">
     <g id="line2d_10">
      <g>
       <use style="stroke:#000000;stroke-width:0.8;" x="57.6" xlink:href="#m73b8171caa" y="106.839446"/>
      </g>
     </g>
     <g id="text_11">
      <!-- 80 -->
      <g transform="translate(37.875 110.638664)scale(0.1 -0.1)">
       <use xlink:href="#DejaVuSans-56"/>
       <use x="63.623047" xlink:href="#DejaVuSans-48"/>
      </g>
     </g>
    </g>
    <g id="ytick_6">
     <g id="line2d_11">
      <g>
       <use style="stroke:#000000;stroke-width:0.8;" x="57.6" xlink:href="#m73b8171caa" y="56.653307"/>
      </g>
     </g>
     <g id="text_12">
      <!-- 100 -->
      <g transform="translate(31.5125 60.452526)scale(0.1 -0.1)">
       <defs>
        <path d="M 12.40625 8.296875 
L 28.515625 8.296875 
L 28.515625 63.921875 
L 10.984375 60.40625 
L 10.984375 69.390625 
L 28.421875 72.90625 
L 38.28125 72.90625 
L 38.28125 8.296875 
L 54.390625 8.296875 
L 54.390625 0 
L 12.40625 0 
z
" id="DejaVuSans-49"/>
       </defs>
       <use xlink:href="#DejaVuSans-49"/>
       <use x="63.623047" xlink:href="#DejaVuSans-48"/>
       <use x="127.246094" xlink:href="#DejaVuSans-48"/>
      </g>
     </g>
    </g>
    <g id="text_13">
     <!-- Size per Species -->
     <g transform="translate(25.432812 215.520969)rotate(-90)scale(0.1 -0.1)">
      <defs>
       <path d="M 53.515625 70.515625 
L 53.515625 60.890625 
Q 47.90625 63.578125 42.921875 64.890625 
Q 37.9375 66.21875 33.296875 66.21875 
Q 25.25 66.21875 20.875 63.09375 
Q 16.5 59.96875 16.5 54.203125 
Q 16.5 49.359375 19.40625 46.890625 
Q 22.3125 44.4375 30.421875 42.921875 
L 36.375 41.703125 
Q 47.40625 39.59375 52.65625 34.296875 
Q 57.90625 29 57.90625 20.125 
Q 57.90625 9.515625 50.796875 4.046875 
Q 43.703125 -1.421875 29.984375 -1.421875 
Q 24.8125 -1.421875 18.96875 -0.25 
Q 13.140625 0.921875 6.890625 3.21875 
L 6.890625 13.375 
Q 12.890625 10.015625 18.65625 8.296875 
Q 24.421875 6.59375 29.984375 6.59375 
Q 38.421875 6.59375 43.015625 9.90625 
Q 47.609375 13.234375 47.609375 19.390625 
Q 47.609375 24.75 44.3125 27.78125 
Q 41.015625 30.8125 33.5 32.328125 
L 27.484375 33.5 
Q 16.453125 35.6875 11.515625 40.375 
Q 6.59375 45.0625 6.59375 53.421875 
Q 6.59375 63.09375 13.40625 68.65625 
Q 20.21875 74.21875 32.171875 74.21875 
Q 37.3125 74.21875 42.625 73.28125 
Q 47.953125 72.359375 53.515625 70.515625 
z
" id="DejaVuSans-83"/>
       <path d="M 5.515625 54.6875 
L 48.1875 54.6875 
L 48.1875 46.484375 
L 14.40625 7.171875 
L 48.1875 7.171875 
L 48.1875 0 
L 4.296875 0 
L 4.296875 8.203125 
L 38.09375 47.515625 
L 5.515625 47.515625 
z
" id="DejaVuSans-122"/>
       <path id="DejaVuSans-32"/>
       <path d="M 18.109375 8.203125 
L 18.109375 -20.796875 
L 9.078125 -20.796875 
L 9.078125 54.6875 
L 18.109375 54.6875 
L 18.109375 46.390625 
Q 20.953125 51.265625 25.265625 53.625 
Q 29.59375 56 35.59375 56 
Q 45.5625 56 51.78125 48.09375 
Q 58.015625 40.1875 58.015625 27.296875 
Q 58.015625 14.40625 51.78125 6.484375 
Q 45.5625 -1.421875 35.59375 -1.421875 
Q 29.59375 -1.421875 25.265625 0.953125 
Q 20.953125 3.328125 18.109375 8.203125 
z
M 48.6875 27.296875 
Q 48.6875 37.203125 44.609375 42.84375 
Q 40.53125 48.484375 33.40625 48.484375 
Q 26.265625 48.484375 22.1875 42.84375 
Q 18.109375 37.203125 18.109375 27.296875 
Q 18.109375 17.390625 22.1875 11.75 
Q 26.265625 6.109375 33.40625 6.109375 
Q 40.53125 6.109375 44.609375 11.75 
Q 48.6875 17.390625 48.6875 27.296875 
z
" id="DejaVuSans-112"/>
       <path d="M 48.78125 52.59375 
L 48.78125 44.1875 
Q 44.96875 46.296875 41.140625 47.34375 
Q 37.3125 48.390625 33.40625 48.390625 
Q 24.65625 48.390625 19.8125 42.84375 
Q 14.984375 37.3125 14.984375 27.296875 
Q 14.984375 17.28125 19.8125 11.734375 
Q 24.65625 6.203125 33.40625 6.203125 
Q 37.3125 6.203125 41.140625 7.25 
Q 44.96875 8.296875 48.78125 10.40625 
L 48.78125 2.09375 
Q 45.015625 0.34375 40.984375 -0.53125 
Q 36.96875 -1.421875 32.421875 -1.421875 
Q 20.0625 -1.421875 12.78125 6.34375 
Q 5.515625 14.109375 5.515625 27.296875 
Q 5.515625 40.671875 12.859375 48.328125 
Q 20.21875 56 33.015625 56 
Q 37.15625 56 41.109375 55.140625 
Q 45.0625 54.296875 48.78125 52.59375 
z
" id="DejaVuSans-99"/>
      </defs>
      <use xlink:href="#DejaVuSans-83"/>
      <use x="63.476562" xlink:href="#DejaVuSans-105"/>
      <use x="91.259766" xlink:href="#DejaVuSans-122"/>
      <use x="143.75" xlink:href="#DejaVuSans-101"/>
      <use x="205.273438" xlink:href="#DejaVuSans-32"/>
      <use x="237.060547" xlink:href="#DejaVuSans-112"/>
      <use x="300.537109" xlink:href="#DejaVuSans-101"/>
      <use x="362.060547" xlink:href="#DejaVuSans-114"/>
      <use x="403.173828" xlink:href="#DejaVuSans-32"/>
      <use x="434.960938" xlink:href="#DejaVuSans-83"/>
      <use x="498.4375" xlink:href="#DejaVuSans-112"/>
      <use x="561.914062" xlink:href="#DejaVuSans-101"/>
      <use x="623.4375" xlink:href="#DejaVuSans-99"/>
      <use x="678.417969" xlink:href="#DejaVuSans-105"/>
      <use x="706.201172" xlink:href="#DejaVuSans-101"/>
      <use x="767.724609" xlink:href="#DejaVuSans-115"/>
     </g>
    </g>
   </g>
   <g id="patch_3">
    <path d="M 57.6 307.584 
L 57.6 41.472 
" style="fill:none;stroke:#000000;stroke-linecap:square;stroke-linejoin:miter;stroke-width:0.8;"/>
   </g>
   <g id="patch_4">
    <path d="M 414.72 307.584 
L 414.72 41.472 
" style="fill:none;stroke:#000000;stroke-linecap:square;stroke-linejoin:miter;stroke-width:0.8;"/>
   </g>
   <g id="patch_5">
    <path d="M 57.6 307.584 
L 414.72 307.584 
" style="fill:none;stroke:#000000;stroke-linecap:square;stroke-linejoin:miter;stroke-width:0.8;"/>
   </g>
   <g id="patch_6">
    <path d="M 57.6 41.472 
L 414.72 41.472 
" style="fill:none;stroke:#000000;stroke-linecap:square;stroke-linejoin:miter;stroke-width:0.8;"/>
   </g>
   <g id="text_14">
    <!-- Speciation -->
    <g transform="translate(204.714375 35.472)scale(0.12 -0.12)">
     <use xlink:href="#DejaVuSans-83"/>
     <use x="63.476562" xlink:href="#DejaVuSans-112"/>
     <use x="126.953125" xlink:href="#DejaVuSans-101"/>
     <use x="188.476562" xlink:href="#DejaVuSans-99"/>
     <use x="243.457031" xlink:href="#DejaVuSans-105"/>
     <use x="271.240234" xlink:href="#DejaVuSans-97"/>
     <use x="332.519531" xlink:href="#DejaVuSans-116"/>
     <use x="371.728516" xlink:href="#DejaVuSans-105"/>
     <use x="399.511719" xlink:href="#DejaVuSans-111"/>
     <use x="460.693359" xlink:href="#DejaVuSans-110"/>
    </g>
   </g>
  </g>
 </g>
 <defs>
  <clipPath id="pedd356f8a1">
   <rect height="266.112" width="357.12" x="57.6" y="41.472"/>
  </clipPath>
 </defs>
</svg>
